<?xml version="1.0" encoding="UTF-8" standalone="no" ?>
<!DOCTYPE svg PUBLIC "-//W3C//DTD SVG 1.1//EN" "http://www.w3.org/Graphics/SVG/1.1/DTD/svg11.dtd">
<svg xmlns="http://www.w3.org/2000/svg" xmlns:xlink="http://www.w3.org/1999/xlink" version="1.1" width="1080" height="1080" viewBox="0 0 1080 1080" xml:space="preserve">
<desc>Created with Fabric.js 5.2.4</desc>
<defs>
</defs>
<g transform="matrix(1 0 0 1 540 540)" id="460e392e-2d88-4a04-8b84-525ba1b07834"  >
</g>
<g transform="matrix(1 0 0 1 540 540)" id="161e73a3-110b-45a1-8e3e-999d0b711ffe"  >
<rect style="stroke: none; stroke-width: 1; stroke-dasharray: none; stroke-linecap: butt; stroke-dashoffset: 0; stroke-linejoin: miter; stroke-miterlimit: 4; fill: rgb(255,255,255); fill-rule: nonzero; opacity: 1; visibility: hidden;" vector-effect="non-scaling-stroke"  x="-540" y="-540" rx="0" ry="0" width="1080" height="1080" />
</g>
<g transform="matrix(4.2 0 0 4.2 94.01 726.47)" clip-path="url(#CLIPPATH_4)"  >
<clipPath id="CLIPPATH_4" >
	<rect transform="matrix(1 0 0 1 106.15 -44.34)" id="clip0_1397_19975" x="-113.5" y="-67" rx="0" ry="0" width="227" height="134" />
</clipPath>
<path style="stroke: none; stroke-width: 1; stroke-dasharray: none; stroke-linecap: butt; stroke-dashoffset: 0; stroke-linejoin: miter; stroke-miterlimit: 4; fill: rgb(232,97,28); fill-rule: nonzero; opacity: 1;" vector-effect="non-scaling-stroke"  transform=" translate(-7.85, -111.34)" d="M 15.1956 133.094 L 10.2807 133.094 L 9.66634 122.619 L 6.04977 122.619 L 5.41493 133.094 L 0.5 133.094 L 4.1862 89.5859 L 11.5217 89.5859 L 15.1956 133.094 Z M 9.05197 110.532 L 7.82324 91.1972 L 6.59451 110.532 L 6.0211 120.204 L 9.65405 120.204 L 9.05197 110.532 Z" stroke-linecap="round" />
</g>
<g transform="matrix(4.2 0 0 4.2 171.13 726.47)" clip-path="url(#CLIPPATH_5)"  >
<clipPath id="CLIPPATH_5" >
	<rect transform="matrix(1 0 0 1 87.79 -44.34)" id="clip0_1397_19975" x="-113.5" y="-67" rx="0" ry="0" width="227" height="134" />
</clipPath>
<path style="stroke: none; stroke-width: 1; stroke-dasharray: none; stroke-linecap: butt; stroke-dashoffset: 0; stroke-linejoin: miter; stroke-miterlimit: 4; fill: rgb(232,97,28); fill-rule: nonzero; opacity: 1;" vector-effect="non-scaling-stroke"  transform=" translate(-26.21, -111.34)" d="M 33.5651 107.31 C 33.5651 108.519 33.2579 109.359 32.6436 109.83 C 32.0292 110.301 31.1118 110.535 29.8912 110.532 C 30.4397 110.521 30.9851 110.616 31.4968 110.812 C 31.9247 110.975 32.3148 111.222 32.6436 111.539 C 32.9434 111.833 33.179 112.185 33.3358 112.574 C 33.4858 112.95 33.5636 113.35 33.5651 113.755 L 33.5651 133.094 L 28.6502 133.094 L 28.6502 112.951 C 28.6605 112.775 28.6288 112.598 28.5577 112.436 C 28.4865 112.274 28.3779 112.131 28.2406 112.018 C 27.9079 111.779 27.5261 111.615 27.1225 111.539 C 26.606 111.433 26.0809 111.375 25.5538 111.364 C 24.9681 111.364 24.366 111.34 23.7557 111.34 L 23.7557 133.094 L 18.8408 133.094 L 18.8408 89.5859 L 23.7557 89.5859 C 24.9845 89.5859 26.1763 89.5859 27.3518 89.6468 C 28.4157 89.6762 29.4726 89.8274 30.5015 90.0973 C 31.335 90.3068 32.0997 90.7262 32.7214 91.3149 C 33.0155 91.6252 33.2422 91.9922 33.3873 92.3929 C 33.5324 92.7936 33.593 93.2196 33.5651 93.6445 L 33.5651 107.31 Z M 28.6502 93.6161 C 28.6702 93.2864 28.5826 92.9591 28.4004 92.6826 C 28.1884 92.4375 27.9003 92.269 27.5812 92.2037 C 27.0857 92.0889 26.5787 92.0304 26.0699 92.0292 C 25.4432 92.0292 24.6732 92.0048 23.7557 92.0048 L 23.7557 109.729 C 24.366 109.729 24.9845 109.729 25.5538 109.704 C 26.0812 109.694 26.6065 109.634 27.1225 109.526 C 27.5238 109.45 27.903 109.286 28.2324 109.047 C 28.3699 108.935 28.4787 108.792 28.5499 108.631 C 28.6211 108.469 28.6527 108.293 28.642 108.117 L 28.6502 93.6161 Z" stroke-linecap="round" />
</g>
<g transform="matrix(4.2 0 0 4.2 253.58 727.43)" clip-path="url(#CLIPPATH_6)"  >
<clipPath id="CLIPPATH_6" >
	<rect transform="matrix(1 0 0 1 68.17 -44.57)" id="clip0_1397_19975" x="-113.5" y="-67" rx="0" ry="0" width="227" height="134" />
</clipPath>
<path style="stroke: none; stroke-width: 1; stroke-dasharray: none; stroke-linecap: butt; stroke-dashoffset: 0; stroke-linejoin: miter; stroke-miterlimit: 4; fill: rgb(232,97,28); fill-rule: nonzero; opacity: 1;" vector-effect="non-scaling-stroke"  transform=" translate(-45.83, -111.57)" d="M 48.2568 123.343 L 48.2568 129.065 C 48.2568 129.268 48.2445 129.508 48.2199 129.784 C 48.1962 130.071 48.105 130.349 47.9537 130.595 C 47.7734 130.87 47.5215 131.092 47.2246 131.237 C 46.3157 131.594 45.3034 131.594 44.3944 131.237 C 44.0975 131.092 43.8456 130.87 43.6654 130.595 C 43.514 130.349 43.4229 130.071 43.3992 129.784 C 43.3746 129.508 43.3582 129.268 43.3582 129.065 L 43.3582 93.6217 C 43.3459 93.278 43.419 92.9365 43.5712 92.6274 C 43.6967 92.3798 43.8878 92.1707 44.1241 92.0226 C 44.3659 91.8757 44.6322 91.7726 44.9105 91.7183 C 45.5044 91.6046 46.1147 91.6046 46.7086 91.7183 C 46.9866 91.7734 47.2528 91.8764 47.4949 92.0226 C 47.7312 92.1707 47.9224 92.3798 48.0479 92.6274 C 48.1985 92.9369 48.2702 93.2783 48.2568 93.6217 L 48.2568 100.87 L 53.1717 100.87 L 53.1717 93.6217 C 53.1821 92.9347 52.968 92.2627 52.5614 91.7061 C 52.1252 91.1304 51.5657 90.6578 50.9231 90.3221 C 50.181 89.9419 49.388 89.6686 48.568 89.5104 C 47.6681 89.3248 46.7512 89.2323 45.8321 89.2344 C 44.9467 89.2343 44.0634 89.3186 43.1944 89.486 C 42.3765 89.6354 41.5837 89.8977 40.8393 90.2653 C 40.1743 90.5894 39.5918 91.0584 39.1355 91.6371 C 38.6979 92.214 38.4699 92.9205 38.4883 93.642 L 38.4883 129.065 C 38.5037 129.432 38.542 129.798 38.603 130.161 C 38.7188 130.767 39.0024 131.329 39.4222 131.784 C 40.0214 132.439 40.7679 132.943 41.6011 133.258 C 42.5978 133.682 44.0135 133.896 45.8484 133.899 C 47.6833 133.902 49.0868 133.689 50.0589 133.262 C 50.8915 132.946 51.6378 132.442 52.2378 131.788 C 52.6576 131.333 52.9412 130.771 53.057 130.165 C 53.118 129.802 53.1563 129.437 53.1717 129.069 L 53.1717 123.343 L 48.2568 123.343 Z" stroke-linecap="round" />
</g>
<g transform="matrix(4.2 0 0 4.2 356.83 726.47)" clip-path="url(#CLIPPATH_7)"  >
<clipPath id="CLIPPATH_7" >
	<rect transform="matrix(1 0 0 1 43.6 -44.34)" id="clip0_1397_19975" x="-113.5" y="-67" rx="0" ry="0" width="227" height="134" />
</clipPath>
<path style="stroke: none; stroke-width: 1; stroke-dasharray: none; stroke-linecap: butt; stroke-dashoffset: 0; stroke-linejoin: miter; stroke-miterlimit: 4; fill: rgb(0,0,0); fill-rule: nonzero; opacity: 1;" vector-effect="non-scaling-stroke"  transform=" translate(-70.4, -111.34)" d="M 72.8602 89.5859 L 72.8602 133.094 L 67.9453 133.094 L 67.9453 89.5859 L 72.8602 89.5859 Z" stroke-linecap="round" />
</g>
<g transform="matrix(4.2 0 0 4.2 421.15 726.47)" clip-path="url(#CLIPPATH_8)"  >
<clipPath id="CLIPPATH_8" >
	<rect transform="matrix(1 0 0 1 28.29 -44.34)" id="clip0_1397_19975" x="-113.5" y="-67" rx="0" ry="0" width="227" height="134" />
</clipPath>
<path style="stroke: none; stroke-width: 1; stroke-dasharray: none; stroke-linecap: butt; stroke-dashoffset: 0; stroke-linejoin: miter; stroke-miterlimit: 4; fill: rgb(0,0,0); fill-rule: nonzero; opacity: 1;" vector-effect="non-scaling-stroke"  transform=" translate(-85.71, -111.34)" d="M 93.0642 133.094 L 88.1492 133.094 L 82.0465 100.804 L 82.0465 133.094 L 78.3604 133.094 L 78.3604 89.5859 L 83.2753 89.5859 L 89.378 121.876 L 89.378 89.5859 L 93.0642 89.5859 L 93.0642 133.094 Z" stroke-linecap="round" />
</g>
<g transform="matrix(4.2 0 0 4.2 503.46 726.47)" clip-path="url(#CLIPPATH_9)"  >
<clipPath id="CLIPPATH_9" >
	<rect transform="matrix(1 0 0 1 8.69 -44.34)" id="clip0_1397_19975" x="-113.5" y="-67" rx="0" ry="0" width="227" height="134" />
</clipPath>
<path style="stroke: none; stroke-width: 1; stroke-dasharray: none; stroke-linecap: butt; stroke-dashoffset: 0; stroke-linejoin: miter; stroke-miterlimit: 4; fill: rgb(0,0,0); fill-rule: nonzero; opacity: 1;" vector-effect="non-scaling-stroke"  transform=" translate(-105.31, -111.34)" d="M 112.659 133.094 L 107.744 133.094 L 101.621 100.804 L 101.621 133.094 L 97.9346 133.094 L 97.9346 89.5859 L 102.849 89.5859 L 108.993 121.876 L 108.993 89.5859 L 112.679 89.5859 L 112.659 133.094 Z" stroke-linecap="round" />
</g>
<g transform="matrix(4.2 0 0 4.2 585.74 727.37)" clip-path="url(#CLIPPATH_10)"  >
<clipPath id="CLIPPATH_10" >
	<rect transform="matrix(1 0 0 1 -10.89 -44.55)" id="clip0_1397_19975" x="-113.5" y="-67" rx="0" ry="0" width="227" height="134" />
</clipPath>
<path style="stroke: none; stroke-width: 1; stroke-dasharray: none; stroke-linecap: butt; stroke-dashoffset: 0; stroke-linejoin: miter; stroke-miterlimit: 4; fill: rgb(0,0,0); fill-rule: nonzero; opacity: 1;" vector-effect="non-scaling-stroke"  transform=" translate(-124.89, -111.55)" d="M 132.253 129.062 C 132.235 129.429 132.197 129.795 132.138 130.158 C 132.021 130.763 131.737 131.325 131.319 131.781 C 130.718 132.435 129.97 132.94 129.136 133.254 C 128.142 133.679 126.726 133.893 124.889 133.896 C 123.05 133.896 121.637 133.681 120.641 133.254 C 119.808 132.938 119.06 132.434 118.458 131.781 C 118.04 131.325 117.757 130.763 117.639 130.158 C 117.578 129.795 117.54 129.429 117.524 129.062 L 117.524 93.6185 C 117.524 93.4846 117.524 93.2816 117.561 93.0138 C 117.598 92.7058 117.677 92.404 117.795 92.1168 C 117.951 91.747 118.17 91.4066 118.442 91.1103 C 118.805 90.7257 119.233 90.4071 119.707 90.1687 C 120.353 89.842 121.043 89.6084 121.755 89.4747 C 123.807 89.123 125.905 89.123 127.956 89.4747 C 128.669 89.6084 129.358 89.842 130.004 90.1687 C 130.478 90.4071 130.907 90.7257 131.27 91.1103 C 131.564 91.4058 131.802 91.7507 131.974 92.129 C 132.093 92.4157 132.171 92.7177 132.204 93.026 C 132.232 93.2938 132.245 93.4968 132.245 93.6307 L 132.253 129.062 Z M 122.456 129.062 C 122.456 129.265 122.468 129.504 122.493 129.78 C 122.518 130.068 122.61 130.346 122.763 130.592 C 122.94 130.868 123.191 131.09 123.488 131.233 C 124.398 131.59 125.412 131.59 126.322 131.233 C 126.619 131.09 126.87 130.868 127.047 130.592 C 127.2 130.346 127.292 130.068 127.317 129.78 C 127.342 129.51 127.354 129.27 127.354 129.062 L 127.354 93.6185 C 127.353 93.3989 127.341 93.1794 127.317 92.961 C 127.29 92.7262 127.197 92.5038 127.047 92.3198 C 126.852 92.0972 126.602 91.9281 126.322 91.8287 C 125.396 91.5635 124.414 91.5635 123.488 91.8287 C 123.208 91.9281 122.958 92.0972 122.763 92.3198 C 122.613 92.5038 122.519 92.7262 122.493 92.961 C 122.469 93.1794 122.457 93.3989 122.456 93.6185 L 122.456 129.062 Z" stroke-linecap="round" />
</g>
<g transform="matrix(4.2 0 0 4.2 662.98 726.47)" clip-path="url(#CLIPPATH_11)"  >
<clipPath id="CLIPPATH_11" >
	<rect transform="matrix(1 0 0 1 -29.27 -44.34)" id="clip0_1397_19975" x="-113.5" y="-67" rx="0" ry="0" width="227" height="134" />
</clipPath>
<path style="stroke: none; stroke-width: 1; stroke-dasharray: none; stroke-linecap: butt; stroke-dashoffset: 0; stroke-linejoin: miter; stroke-miterlimit: 4; fill: rgb(0,0,0); fill-rule: nonzero; opacity: 1;" vector-effect="non-scaling-stroke"  transform=" translate(-143.27, -111.34)" d="M 142.087 103.284 L 143.275 119.396 L 144.458 103.284 L 146.015 89.5859 L 150.622 89.5859 L 145.707 133.094 L 140.53 133.094 L 135.927 89.5859 L 140.842 89.5859 L 142.087 103.284 Z" stroke-linecap="round" />
</g>
<g transform="matrix(4.2 0 0 4.2 734.94 726.47)" clip-path="url(#CLIPPATH_12)"  >
<clipPath id="CLIPPATH_12" >
	<rect transform="matrix(1 0 0 1 -46.4 -44.34)" id="clip0_1397_19975" x="-113.5" y="-67" rx="0" ry="0" width="227" height="134" />
</clipPath>
<path style="stroke: none; stroke-width: 1; stroke-dasharray: none; stroke-linecap: butt; stroke-dashoffset: 0; stroke-linejoin: miter; stroke-miterlimit: 4; fill: rgb(0,0,0); fill-rule: nonzero; opacity: 1;" vector-effect="non-scaling-stroke"  transform=" translate(-160.4, -111.34)" d="M 167.763 133.094 L 162.848 133.094 L 162.238 122.619 L 158.601 122.619 L 157.954 133.094 L 153.039 133.094 L 156.725 89.5859 L 164.073 89.5859 L 167.763 133.094 Z M 161.64 110.532 L 160.411 91.1972 L 159.183 110.532 L 158.605 120.204 L 162.242 120.204 L 161.64 110.532 Z" stroke-linecap="round" />
</g>
<g transform="matrix(4.2 0 0 4.2 805.8 726.44)" clip-path="url(#CLIPPATH_13)"  >
<clipPath id="CLIPPATH_13" >
	<rect transform="matrix(1 0 0 1 -63.27 -44.33)" id="clip0_1397_19975" x="-113.5" y="-67" rx="0" ry="0" width="227" height="134" />
</clipPath>
<path style="stroke: none; stroke-width: 1; stroke-dasharray: none; stroke-linecap: butt; stroke-dashoffset: 0; stroke-linejoin: miter; stroke-miterlimit: 4; fill: rgb(0,0,0); fill-rule: nonzero; opacity: 1;" vector-effect="non-scaling-stroke"  transform=" translate(-177.27, -111.33)" d="M 184.642 89.5866 L 184.642 92.0217 L 179.727 92.0217 L 179.727 133.094 L 174.812 133.094 L 174.812 92.0055 L 169.897 92.0055 L 169.897 89.5703 L 184.642 89.5866 Z" stroke-linecap="round" />
</g>
<g transform="matrix(4.2 0 0 4.2 865.02 726.47)" clip-path="url(#CLIPPATH_14)"  >
<clipPath id="CLIPPATH_14" >
	<rect transform="matrix(1 0 0 1 -77.36 -44.34)" id="clip0_1397_19975" x="-113.5" y="-67" rx="0" ry="0" width="227" height="134" />
</clipPath>
<path style="stroke: none; stroke-width: 1; stroke-dasharray: none; stroke-linecap: butt; stroke-dashoffset: 0; stroke-linejoin: miter; stroke-miterlimit: 4; fill: rgb(0,0,0); fill-rule: nonzero; opacity: 1;" vector-effect="non-scaling-stroke"  transform=" translate(-191.36, -111.34)" d="M 193.82 89.5859 L 193.82 133.094 L 188.905 133.094 L 188.905 89.5859 L 193.82 89.5859 Z" stroke-linecap="round" />
</g>
<g transform="matrix(4.2 0 0 4.2 924.24 726.47)" clip-path="url(#CLIPPATH_15)"  >
<clipPath id="CLIPPATH_15" >
	<rect transform="matrix(1 0 0 1 -91.46 -44.34)" id="clip0_1397_19975" x="-113.5" y="-67" rx="0" ry="0" width="227" height="134" />
</clipPath>
<path style="stroke: none; stroke-width: 1; stroke-dasharray: none; stroke-linecap: butt; stroke-dashoffset: 0; stroke-linejoin: miter; stroke-miterlimit: 4; fill: rgb(0,0,0); fill-rule: nonzero; opacity: 1;" vector-effect="non-scaling-stroke"  transform=" translate(-205.46, -111.34)" d="M 204.273 103.284 L 205.461 119.396 L 206.645 103.284 L 208.201 89.5859 L 212.805 89.5859 L 207.89 133.094 L 202.717 133.094 L 198.113 89.5859 L 203.028 89.5859 L 204.273 103.284 Z" stroke-linecap="round" />
</g>
<g transform="matrix(4.2 0 0 4.2 993.69 726.52)" clip-path="url(#CLIPPATH_16)"  >
<clipPath id="CLIPPATH_16" >
	<rect transform="matrix(1 0 0 1 -107.99 -44.35)" id="clip0_1397_19975" x="-113.5" y="-67" rx="0" ry="0" width="227" height="134" />
</clipPath>
<path style="stroke: none; stroke-width: 1; stroke-dasharray: none; stroke-linecap: butt; stroke-dashoffset: 0; stroke-linejoin: miter; stroke-miterlimit: 4; fill: rgb(0,0,0); fill-rule: nonzero; opacity: 1;" vector-effect="non-scaling-stroke"  transform=" translate(-221.99, -111.35)" d="M 227.5 92.0048 L 221.357 92.0048 L 221.357 108.921 L 226.272 108.921 L 226.272 111.356 L 221.357 111.356 L 221.357 130.683 L 227.5 130.683 L 227.5 133.118 L 216.479 133.118 L 216.479 89.5859 L 227.5 89.5859 L 227.5 92.0048 Z" stroke-linecap="round" />
</g>
<g transform="matrix(4.2 0 0 4.2 548.67 443.18)" clip-path="url(#CLIPPATH_17)"  >
<clipPath id="CLIPPATH_17" >
	<rect transform="matrix(1 0 0 1 -2.1 23.08)" id="clip0_1397_19975" x="-113.5" y="-67" rx="0" ry="0" width="227" height="134" />
</clipPath>
<path style="stroke: none; stroke-width: 1; stroke-dasharray: none; stroke-linecap: butt; stroke-dashoffset: 0; stroke-linejoin: miter; stroke-miterlimit: 4; fill: rgb(232,97,28); fill-rule: nonzero; opacity: 1;" vector-effect="non-scaling-stroke"  transform=" translate(-116.1, -43.92)" d="M 116.099 0 C 56.4647 0 8.11816 38.0125 8.11816 84.9052 C 8.11816 85.8874 8.14683 86.8655 8.19189 87.8396 C 10.0923 45.4519 54.384 11.5385 108.755 11.5385 C 163.127 11.5385 207.423 45.4438 209.323 87.8396 L 224.006 87.8396 C 224.047 86.8655 224.08 85.8874 224.08 84.9052 C 224.08 38.0125 175.734 0 116.099 0 Z" stroke-linecap="round" />
</g>
</svg>